<svg width="40" height="40" viewBox="0 0 40 40" fill="none" xmlns="http://www.w3.org/2000/svg">
<path d="M2.22217 24.4446H37.7777V15.5557H2.22217V24.4446ZM11.1111 18.889H26.6666V21.1112H11.1111V18.889ZM6.66661 18.889H8.88883V21.1112H6.66661V18.889Z" fill="#FE9E45"/>
<path d="M35.5555 4.44434H4.44439C3.85502 4.44434 3.28979 4.67846 2.87304 5.09521C2.45629 5.51196 2.22217 6.07719 2.22217 6.66656V13.3332H37.7777V6.66656C37.7777 6.07719 37.5436 5.51196 37.1269 5.09521C36.7101 4.67846 36.1449 4.44434 35.5555 4.44434ZM8.88883 9.99989H6.66661V7.77767H8.88883V9.99989ZM26.6666 9.99989H11.1111V7.77767H26.6666V9.99989Z" fill="#FE9E45"/>
<path d="M2.22217 33.3334C2.22217 33.9228 2.45629 34.488 2.87304 34.9048C3.28979 35.3215 3.85502 35.5556 4.44439 35.5556H35.5555C36.1449 35.5556 36.7101 35.3215 37.1269 34.9048C37.5436 34.488 37.7777 33.9228 37.7777 33.3334V26.6667H2.22217V33.3334ZM11.1111 30.0001H26.6666V32.2223H11.1111V30.0001ZM6.66661 30.0001H8.88883V32.2223H6.66661V30.0001Z" fill="#FE9E45"/>
</svg>
