<svg width="71" height="62" viewBox="0 0 71 62" fill="none" xmlns="http://www.w3.org/2000/svg">
<path d="M51.5502 22.2437C51.5502 10.1618 40.2335 0.368652 26.2724 0.368652C12.3113 0.368652 0.994629 10.1618 0.994629 22.2437C0.994629 26.929 2.71182 31.2603 5.60904 34.819C3.98543 38.9534 1.30088 42.2265 1.26199 42.2729C1.13113 42.428 1.04357 42.6228 1.01013 42.8333C0.976694 43.0437 0.998858 43.2606 1.07388 43.4571C1.1489 43.6535 1.27348 43.8209 1.4322 43.9385C1.59092 44.0561 1.7768 44.1187 1.96685 44.1187C6.41234 44.1187 10.1007 42.4438 12.75 40.7034C16.6632 42.8554 21.2922 44.1187 26.2724 44.1187C40.2335 44.1187 51.5502 34.3255 51.5502 22.2437ZM24.328 35.3687V33.1415C22.9559 33.0622 21.6215 32.5235 20.5156 31.5897C20.0417 31.1892 20.0174 30.3907 20.4464 29.93L21.8743 28.3974C22.2109 28.0364 22.7116 28.02 23.1054 28.2976C23.5757 28.6284 24.1092 28.8062 24.6634 28.8062H28.0795C28.8695 28.8062 29.5136 27.9968 29.5136 27.0028C29.5136 26.1894 29.0748 25.4729 28.4478 25.2624L22.979 23.4167C20.7198 22.6538 19.1412 20.2147 19.1412 17.4845C19.1412 14.1321 21.4563 11.4087 24.3267 11.3226V9.11865C24.3267 8.51436 24.7618 8.0249 25.299 8.0249H27.2434C27.7806 8.0249 28.2156 8.51436 28.2156 9.11865V11.3458C29.5877 11.4251 30.9221 11.9624 32.028 12.8976C32.5019 13.2981 32.5262 14.0966 32.0972 14.5573L30.6693 16.0899C30.3326 16.4509 29.832 16.4673 29.4382 16.1897C28.9679 15.8575 28.4344 15.6812 27.8802 15.6812H24.4641C23.6741 15.6812 23.03 16.4905 23.03 17.4845C23.03 18.2979 23.4688 19.0144 24.0958 19.2249L29.5646 21.0706C31.8238 21.8335 33.4024 24.2726 33.4024 27.0028C33.4024 30.3565 31.0873 33.0786 28.2169 33.1647V35.3687C28.2169 35.9729 27.7818 36.4624 27.2446 36.4624H25.3002C24.763 36.4624 24.328 35.9729 24.328 35.3687ZM66.3778 52.3204C69.2774 48.7616 70.9946 44.429 70.9946 39.7437C70.9946 30.5917 64.4941 22.7632 55.2774 19.4997C55.382 20.4021 55.4391 21.3167 55.4391 22.2437C55.4391 36.7181 42.3554 48.4937 26.2724 48.4937C24.9623 48.4937 23.6814 48.3884 22.4163 48.2366C26.2481 56.0993 35.2375 61.6187 45.7169 61.6187C50.6971 61.6187 55.326 60.3554 59.2392 58.2034C61.8885 59.9438 65.5769 61.6187 70.0224 61.6187C70.4113 61.6187 70.7625 61.3575 70.9144 60.9569C71.0688 60.555 70.9946 60.0901 70.7261 59.7716C70.6884 59.7265 68.0014 56.4575 66.3778 52.3204Z" fill="white"/>
</svg>
