<svg width="31" height="16" viewBox="0 0 31 16" fill="none" xmlns="http://www.w3.org/2000/svg">
<path d="M30.3664 2.13693C30.3534 1.96703 30.3066 1.80171 30.2289 1.65128C30.1512 1.50085 30.0443 1.36854 29.9148 1.26261C29.7853 1.15668 29.6361 1.0794 29.4763 1.03559C29.3166 0.991775 29.1498 0.982377 28.9864 1.00798C26.3734 1.43791 20.2474 3.93088 15.9949 3.93088C11.7424 3.93088 5.61637 1.43791 3.00337 1.00798C2.84003 0.982142 2.67328 0.991324 2.51354 1.03495C2.3538 1.07857 2.20451 1.1557 2.07499 1.26151C1.94547 1.36732 1.83852 1.49954 1.76081 1.6499C1.6831 1.80026 1.63632 1.96553 1.62337 2.13538C1.41037 4.50463 0.994873 10.8128 0.994873 11.7686C0.994873 13.0522 6.20287 15.9937 9.99487 15.9937C13.6729 15.9937 14.4199 11.7686 15.9949 11.7686C17.5699 11.7686 18.3169 15.9937 21.9949 15.9937C25.7869 15.9937 30.9949 13.0522 30.9949 11.7686C30.9949 10.8128 30.5794 4.50463 30.3664 2.13693ZM12.4849 9.68389C11.9554 10.1757 10.4824 11.3387 8.68837 10.9752C6.89437 10.6118 5.80987 8.9292 5.43937 8.25647C5.39551 8.17894 5.37817 8.08847 5.39014 7.99958C5.40211 7.91068 5.44269 7.8285 5.50537 7.76622C6.03487 7.27443 7.50787 6.11146 9.30337 6.47489C11.0974 6.83832 12.1819 8.52092 12.5524 9.19365C12.5958 9.27141 12.6127 9.36192 12.6005 9.45076C12.5883 9.53959 12.5476 9.62166 12.4849 9.68389ZM26.5504 8.25647C26.1814 8.93074 25.0969 10.6118 23.3014 10.9752C21.5074 11.3387 20.0329 10.1757 19.5049 9.68389C19.4422 9.62166 19.4015 9.53959 19.3892 9.45076C19.377 9.36192 19.394 9.27141 19.4374 9.19365C19.8064 8.51937 20.8909 6.83832 22.6864 6.47489C24.4804 6.11146 25.9549 7.27443 26.4829 7.76622C26.546 7.82816 26.5871 7.91027 26.5993 7.99924C26.6116 8.08822 26.5943 8.17885 26.5504 8.25647Z" fill="white"/>
</svg>
