<svg width="60" height="60" viewBox="0 0 60 60" fill="none" xmlns="http://www.w3.org/2000/svg">
<path d="M29.9999 27.0769C33.8677 27.0769 37.577 28.6134 40.3119 31.3483C43.0468 34.0832 44.5833 37.7925 44.5833 41.6602V59.1602H15.4166V41.6602C15.4166 37.7925 16.953 34.0832 19.6879 31.3483C22.4229 28.6134 26.1322 27.0769 29.9999 27.0769ZM10.4233 35.8444C9.95909 37.41 9.6849 39.0258 9.60659 40.6569L9.58325 41.6602V59.1602H0.833252V46.0352C0.832678 43.5198 1.76083 41.0928 3.43969 39.2196C5.11854 37.3464 7.42987 36.1591 9.93034 35.8852L10.4262 35.8444H10.4233ZM49.5766 35.8444C52.1722 36.0026 54.6096 37.1451 56.3917 39.0388C58.1738 40.9326 59.1662 43.4349 59.1666 46.0352V59.1602H50.4166V41.6602C50.4166 39.639 50.1249 37.6877 49.5766 35.8444ZM11.0416 18.3269C12.9755 18.3269 14.8301 19.0951 16.1976 20.4626C17.565 21.83 18.3333 23.6847 18.3333 25.6186C18.3333 27.5524 17.565 29.4071 16.1976 30.7746C14.8301 32.142 12.9755 32.9102 11.0416 32.9102C9.10772 32.9102 7.25305 32.142 5.8856 30.7746C4.51815 29.4071 3.74992 27.5524 3.74992 25.6186C3.74992 23.6847 4.51815 21.83 5.8856 20.4626C7.25305 19.0951 9.10772 18.3269 11.0416 18.3269ZM48.9583 18.3269C50.8921 18.3269 52.7468 19.0951 54.1142 20.4626C55.4817 21.83 56.2499 23.6847 56.2499 25.6186C56.2499 27.5524 55.4817 29.4071 54.1142 30.7746C52.7468 32.142 50.8921 32.9102 48.9583 32.9102C47.0244 32.9102 45.1697 32.142 43.8023 30.7746C42.4348 29.4071 41.6666 27.5524 41.6666 25.6186C41.6666 23.6847 42.4348 21.83 43.8023 20.4626C45.1697 19.0951 47.0244 18.3269 48.9583 18.3269ZM29.9999 0.826904C33.0941 0.826904 36.0616 2.05607 38.2495 4.24399C40.4374 6.43192 41.6666 9.39938 41.6666 12.4936C41.6666 15.5878 40.4374 18.5552 38.2495 20.7432C36.0616 22.9311 33.0941 24.1602 29.9999 24.1602C26.9057 24.1602 23.9383 22.9311 21.7503 20.7432C19.5624 18.5552 18.3333 15.5878 18.3333 12.4936C18.3333 9.39938 19.5624 6.43192 21.7503 4.24399C23.9383 2.05607 26.9057 0.826904 29.9999 0.826904Z" fill="white"/>
</svg>
