<svg width="60" height="61" viewBox="0 0 60 61" fill="none" xmlns="http://www.w3.org/2000/svg">
<path d="M25.7828 25.4743C32.7201 25.4743 38.3439 19.8505 38.3439 12.9132C38.3439 5.97585 32.7201 0.352051 25.7828 0.352051C18.8455 0.352051 13.2217 5.97585 13.2217 12.9132C13.2217 19.8505 18.8455 25.4743 25.7828 25.4743Z" fill="white"/>
<path d="M33.8328 48.4382H47.4439V51.1605H33.8328V48.4382Z" fill="white"/>
<path d="M22.1662 52.327V58.1603C22.1662 58.676 22.371 59.1706 22.7357 59.5352C23.1003 59.8999 23.5949 60.1047 24.1106 60.1047H57.1662C57.6819 60.1047 58.1764 59.8999 58.5411 59.5352C58.9057 59.1706 59.1106 58.676 59.1106 58.1603V38.7158C59.1106 38.2001 58.9057 37.7056 58.5411 37.3409C58.1764 36.9763 57.6819 36.7714 57.1662 36.7714H43.555V33.9131C43.555 33.3974 43.3502 32.9028 42.9855 32.5381C42.6209 32.1735 42.1263 31.9686 41.6106 31.9686C41.0949 31.9686 40.6003 32.1735 40.2357 32.5381C39.871 32.9028 39.6662 33.3974 39.6662 33.9131V36.7714H35.7773V29.8103C32.4731 29.2706 29.1308 28.9975 25.7828 28.9936C18.3994 28.9622 11.0987 30.5485 4.39393 33.6408C3.29043 34.1616 2.35947 34.988 1.71152 36.0219C1.06357 37.0559 0.725834 38.254 0.738374 39.4742V52.327H22.1662ZM55.2217 56.2158H26.055V40.6603H39.6662V41.477C39.6662 41.9927 39.871 42.4872 40.2357 42.8519C40.6003 43.2165 41.0949 43.4214 41.6106 43.4214C42.1263 43.4214 42.6209 43.2165 42.9855 42.8519C43.3502 42.4872 43.555 41.9927 43.555 41.477V40.6603H55.2217V56.2158Z" fill="white"/>
</svg>
