<svg width="78" height="76" viewBox="0 0 78 76" fill="none" xmlns="http://www.w3.org/2000/svg">
<path d="M29.8218 0.5C27.0843 0.5 24.6812 1.90625 22.9843 3.72188C21.2875 5.54063 20.0656 7.8125 18.9812 10.2656C17.3218 14.0469 16.1375 18.25 15.075 22.1812C11.6812 23.1687 8.79995 24.4 6.4812 25.8906C3.77183 27.6375 1.49995 30.0531 1.49995 33.3125C1.49995 36.1437 3.23433 38.4156 5.4062 40.05C7.26245 41.4438 9.5437 42.6031 12.2437 43.5656C12.4 44.2844 12.6343 45.0187 12.925 45.7156C10.2906 47.2031 6.11245 50.0844 2.08745 55.5781L0.231201 58.2156L2.8687 60.0688L13.1187 67.1L8.92495 75.5H69.0812L64.8812 67.1L75.1375 60.0688L77.7718 58.2156L75.9187 55.5781C71.8875 50.0844 67.7156 47.2031 65.075 45.7156C65.3718 45.0187 65.6031 44.2875 65.7625 43.5656C68.4593 42.6031 70.7406 41.4406 72.5968 40.05C74.7687 38.4156 76.5031 36.1437 76.5031 33.3125C76.5031 30.0531 74.2312 27.6375 71.5218 25.8906C69.2031 24.4 66.3218 23.1688 62.9281 22.1781C61.7562 18.1031 60.4624 13.8313 58.8281 10.0719C57.7656 7.64063 56.5937 5.40625 54.9218 3.625C53.25 1.84375 50.8687 0.5 48.1812 0.5C46.3624 0.5 44.9843 1 43.4937 1.37813C42.0062 1.75625 40.5031 2.0625 39.0031 2.0625C36.0031 2.0625 33.4843 0.5 29.8218 0.5ZM29.8218 6.75C30.4687 6.75 34.3125 8.3125 39 8.3125C41.3437 8.3125 43.4312 7.8375 45.0562 7.43437C46.6781 7.02812 47.9124 6.75 48.1812 6.75C48.9 6.75 49.4375 6.98125 50.3281 7.92188C51.2187 8.85938 52.2687 10.5594 53.1593 12.6094C54.8562 16.4906 56.15 21.7906 57.5562 26.6719C57.5562 26.6594 57.725 26.525 57.2625 26.7688C56.4812 27.1969 54.8437 27.7469 52.8656 28.0375C48.9 28.6375 43.4906 28.625 39 28.625C34.5312 28.625 29.1125 28.5625 25.1312 27.9406C23.1437 27.6375 21.5312 27.0969 20.7375 26.6719C20.4937 26.5375 20.4093 26.5875 20.3468 26.575V26.4781C20.3593 26.4531 20.3343 26.4031 20.3468 26.3781L20.4437 26.2812C20.6775 25.861 20.8122 25.3928 20.8375 24.9125V24.8187C21.9593 20.6656 23.2156 16.2719 24.7437 12.8031C25.6562 10.7187 26.6468 9.02188 27.575 8.02188C28.5031 7.01875 29.1375 6.75 29.8218 6.75ZM14.5843 28.9187C15.2937 30.3844 16.5406 31.5562 17.8093 32.2375C19.7156 33.25 21.8968 33.7281 24.2531 34.0938C28.9656 34.825 34.4843 34.875 39 34.875C43.4937 34.875 49.0218 34.9 53.7468 34.1906C56.1156 33.8375 58.275 33.375 60.1906 32.3344C61.4718 31.6406 62.7187 30.4062 63.4156 28.9187C65.3437 29.6031 66.9656 30.3344 68.1031 31.0656C69.9218 32.2375 70.25 33.1063 70.25 33.3125C70.25 33.4969 70.0937 34.0938 68.7843 35.0719C67.4781 36.0469 65.2343 37.1813 62.3406 38.0969C56.5531 39.9406 48.2281 41.125 39 41.125C29.7718 41.125 21.4468 39.9406 15.6593 38.0969C12.7656 37.1813 10.5218 36.0469 9.21558 35.0719C7.9062 34.0938 7.74995 33.4969 7.74995 33.3125C7.74995 33.1063 7.9937 32.325 9.79995 31.1625C10.9375 30.4313 12.6093 29.6375 14.5875 28.9187H14.5843ZM22.6906 46.0094C23.7156 46.1781 24.7312 46.4594 25.8156 46.5938C26.2218 49.3406 28.3562 51.7562 31.7718 51.9656C34.4093 52.1219 37.375 50.8781 37.6343 47.375H40.3687C40.625 50.8781 43.5875 52.125 46.2281 51.9656C49.6437 51.7562 51.7812 49.3406 52.1843 46.5938C53.2687 46.4594 54.2843 46.1781 55.3093 46.0063L55.0156 47.9594C54.05 53.1 51.7562 57.8594 48.8625 61.1469C45.9687 64.425 42.5781 66.1719 39 66.125C35.325 66.075 32.0062 64.3063 29.1375 61.0469C26.2687 57.7875 24.0125 53.125 22.9843 47.9594L22.6906 46.0094ZM60.875 50.5C62.0343 51.1844 65.0874 53.1875 68.5906 57.0438L59.1156 63.5844L56.8718 65.0531L58.0437 67.4906L58.9218 69.25H49.0593C50.7209 68.1128 52.2301 66.7675 53.55 65.2469C56.9937 61.3406 59.3 56.225 60.5812 50.6938C60.6906 50.6344 60.7781 50.5625 60.875 50.5ZM17.0281 50.5969C17.15 50.6719 17.2968 50.7219 17.4187 50.7938C18.7625 56.25 21.0562 61.3031 24.45 65.1469C25.8531 66.7469 27.4875 68.1156 29.2343 69.25H19.0781L19.9562 67.4906L21.1281 65.0531L18.8812 63.5844L9.41245 57.0438C12.7187 53.3937 15.7343 51.3781 17.0281 50.5969Z" fill="white"/>
</svg>
