<svg width="39" height="39" viewBox="0 0 39 39" fill="none" xmlns="http://www.w3.org/2000/svg">
<path d="M25.125 28.875C24.7542 28.875 24.3916 28.985 24.0833 29.191C23.775 29.397 23.5346 29.6899 23.3927 30.0325C23.2508 30.3751 23.2137 30.7521 23.286 31.1158C23.3584 31.4795 23.537 31.8136 23.7992 32.0758C24.0614 32.3381 24.3955 32.5166 24.7592 32.589C25.1229 32.6613 25.4999 32.6242 25.8425 32.4823C26.1851 32.3404 26.478 32.1 26.684 31.7917C26.89 31.4834 27 31.1208 27 30.75C27 30.2527 26.8025 29.7758 26.4508 29.4242C26.0992 29.0725 25.6223 28.875 25.125 28.875ZM13.875 28.875H8.25C7.75272 28.875 7.27581 29.0725 6.92418 29.4242C6.57254 29.7758 6.375 30.2527 6.375 30.75C6.375 31.2473 6.57254 31.7242 6.92418 32.0758C7.27581 32.4275 7.75272 32.625 8.25 32.625H13.875C14.3723 32.625 14.8492 32.4275 15.2008 32.0758C15.5525 31.7242 15.75 31.2473 15.75 30.75C15.75 30.2527 15.5525 29.7758 15.2008 29.4242C14.8492 29.0725 14.3723 28.875 13.875 28.875ZM30.75 28.875C30.3792 28.875 30.0166 28.985 29.7083 29.191C29.4 29.397 29.1596 29.6899 29.0177 30.0325C28.8758 30.3751 28.8387 30.7521 28.911 31.1158C28.9834 31.4795 29.1619 31.8136 29.4242 32.0758C29.6864 32.3381 30.0205 32.5166 30.3842 32.589C30.7479 32.6613 31.1249 32.6242 31.4675 32.4823C31.8101 32.3404 32.103 32.1 32.309 31.7917C32.515 31.4834 32.625 31.1208 32.625 30.75C32.625 30.2527 32.4275 29.7758 32.0758 29.4242C31.7242 29.0725 31.2473 28.875 30.75 28.875ZM25.125 17.625C24.7542 17.625 24.3916 17.735 24.0833 17.941C23.775 18.147 23.5346 18.4399 23.3927 18.7825C23.2508 19.1251 23.2137 19.5021 23.286 19.8658C23.3584 20.2295 23.537 20.5636 23.7992 20.8258C24.0614 21.088 24.3955 21.2666 24.7592 21.339C25.1229 21.4113 25.4999 21.3742 25.8425 21.2323C26.1851 21.0904 26.478 20.85 26.684 20.5417C26.89 20.2334 27 19.8708 27 19.5C27 19.0027 26.8025 18.5258 26.4508 18.1742C26.0992 17.8225 25.6223 17.625 25.125 17.625ZM13.875 17.625H8.25C7.75272 17.625 7.27581 17.8225 6.92418 18.1742C6.57254 18.5258 6.375 19.0027 6.375 19.5C6.375 19.9973 6.57254 20.4742 6.92418 20.8258C7.27581 21.1775 7.75272 21.375 8.25 21.375H13.875C14.3723 21.375 14.8492 21.1775 15.2008 20.8258C15.5525 20.4742 15.75 19.9973 15.75 19.5C15.75 19.0027 15.5525 18.5258 15.2008 18.1742C14.8492 17.8225 14.3723 17.625 13.875 17.625ZM30.75 6.375C30.3792 6.375 30.0166 6.48497 29.7083 6.69099C29.4 6.89702 29.1596 7.18986 29.0177 7.53247C28.8758 7.87508 28.8387 8.25208 28.911 8.61579C28.9834 8.97951 29.1619 9.3136 29.4242 9.57582C29.6864 9.83805 30.0205 10.0166 30.3842 10.089C30.7479 10.1613 31.1249 10.1242 31.4675 9.98227C31.8101 9.84036 32.103 9.60004 32.309 9.29169C32.515 8.98335 32.625 8.62084 32.625 8.25C32.625 7.75272 32.4275 7.27581 32.0758 6.92418C31.7242 6.57254 31.2473 6.375 30.75 6.375ZM30.75 17.625C30.3792 17.625 30.0166 17.735 29.7083 17.941C29.4 18.147 29.1596 18.4399 29.0177 18.7825C28.8758 19.1251 28.8387 19.5021 28.911 19.8658C28.9834 20.2295 29.1619 20.5636 29.4242 20.8258C29.6864 21.088 30.0205 21.2666 30.3842 21.339C30.7479 21.4113 31.1249 21.3742 31.4675 21.2323C31.8101 21.0904 32.103 20.85 32.309 20.5417C32.515 20.2334 32.625 19.8708 32.625 19.5C32.625 19.0027 32.4275 18.5258 32.0758 18.1742C31.7242 17.8225 31.2473 17.625 30.75 17.625ZM38.25 6.375C38.25 4.88316 37.6574 3.45242 36.6025 2.39752C35.5476 1.34263 34.1168 0.75 32.625 0.75H6.375C4.88316 0.75 3.45242 1.34263 2.39752 2.39752C1.34263 3.45242 0.75 4.88316 0.75 6.375V10.125C0.75827 11.5126 1.27915 12.8482 2.2125 13.875C1.27915 14.9018 0.75827 16.2374 0.75 17.625V21.375C0.75827 22.7626 1.27915 24.0982 2.2125 25.125C1.27915 26.1518 0.75827 27.4874 0.75 28.875V32.625C0.75 34.1168 1.34263 35.5476 2.39752 36.6025C3.45242 37.6574 4.88316 38.25 6.375 38.25H32.625C34.1168 38.25 35.5476 37.6574 36.6025 36.6025C37.6574 35.5476 38.25 34.1168 38.25 32.625V28.875C38.2417 27.4874 37.7209 26.1518 36.7875 25.125C37.7209 24.0982 38.2417 22.7626 38.25 21.375V17.625C38.2417 16.2374 37.7209 14.9018 36.7875 13.875C37.7209 12.8482 38.2417 11.5126 38.25 10.125V6.375ZM34.5 32.625C34.5 33.1223 34.3025 33.5992 33.9508 33.9508C33.5992 34.3025 33.1223 34.5 32.625 34.5H6.375C5.87772 34.5 5.40081 34.3025 5.04918 33.9508C4.69754 33.5992 4.5 33.1223 4.5 32.625V28.875C4.5 28.3777 4.69754 27.9008 5.04918 27.5492C5.40081 27.1975 5.87772 27 6.375 27H32.625C33.1223 27 33.5992 27.1975 33.9508 27.5492C34.3025 27.9008 34.5 28.3777 34.5 28.875V32.625ZM34.5 21.375C34.5 21.8723 34.3025 22.3492 33.9508 22.7008C33.5992 23.0525 33.1223 23.25 32.625 23.25H6.375C5.87772 23.25 5.40081 23.0525 5.04918 22.7008C4.69754 22.3492 4.5 21.8723 4.5 21.375V17.625C4.5 17.1277 4.69754 16.6508 5.04918 16.2992C5.40081 15.9475 5.87772 15.75 6.375 15.75H32.625C33.1223 15.75 33.5992 15.9475 33.9508 16.2992C34.3025 16.6508 34.5 17.1277 34.5 17.625V21.375ZM34.5 10.125C34.5 10.6223 34.3025 11.0992 33.9508 11.4508C33.5992 11.8025 33.1223 12 32.625 12H6.375C5.87772 12 5.40081 11.8025 5.04918 11.4508C4.69754 11.0992 4.5 10.6223 4.5 10.125V6.375C4.5 5.87772 4.69754 5.40081 5.04918 5.04918C5.40081 4.69754 5.87772 4.5 6.375 4.5H32.625C33.1223 4.5 33.5992 4.69754 33.9508 5.04918C34.3025 5.40081 34.5 5.87772 34.5 6.375V10.125ZM25.125 6.375C24.7542 6.375 24.3916 6.48497 24.0833 6.69099C23.775 6.89702 23.5346 7.18986 23.3927 7.53247C23.2508 7.87508 23.2137 8.25208 23.286 8.61579C23.3584 8.97951 23.537 9.3136 23.7992 9.57582C24.0614 9.83805 24.3955 10.0166 24.7592 10.089C25.1229 10.1613 25.4999 10.1242 25.8425 9.98227C26.1851 9.84036 26.478 9.60004 26.684 9.29169C26.89 8.98335 27 8.62084 27 8.25C27 7.75272 26.8025 7.27581 26.4508 6.92418C26.0992 6.57254 25.6223 6.375 25.125 6.375ZM13.875 6.375H8.25C7.75272 6.375 7.27581 6.57254 6.92418 6.92418C6.57254 7.27581 6.375 7.75272 6.375 8.25C6.375 8.74728 6.57254 9.22419 6.92418 9.57582C7.27581 9.92746 7.75272 10.125 8.25 10.125H13.875C14.3723 10.125 14.8492 9.92746 15.2008 9.57582C15.5525 9.22419 15.75 8.74728 15.75 8.25C15.75 7.75272 15.5525 7.27581 15.2008 6.92418C14.8492 6.57254 14.3723 6.375 13.875 6.375Z" fill="white"/>
</svg>
