<svg width="766" height="668" viewBox="0 0 766 668" fill="none" xmlns="http://www.w3.org/2000/svg">
<path d="M2.49997 0.5C-1.50003 11.6667 3.15749 43.5 12.5 65.5C28 102 69.153 128.862 99.4998 135.5C147.5 146 293.48 118.686 381 135.5C432 145.298 435.667 185.14 400.5 205.5C362.5 227.5 333 237 321.5 291.5C310 346 410.5 397.5 644.5 397.5C719.5 397.5 699.34 449.5 682.5 470.5C640 523.5 504.5 513.5 482.5 566.5C460.5 619.5 519.963 647.047 572 656C618.5 664 717.5 662.5 765.5 667.5" stroke="#838383" stroke-dasharray="20 20"/>
</svg>
