<svg width="200" height="200" viewBox="0 0 200 200" fill="none" xmlns="http://www.w3.org/2000/svg">
<path d="M99.9998 25C54.1665 25 16.6665 55 16.6665 91.6667C16.6665 110 25.8332 126.667 39.9998 137.5C39.9998 142.5 36.6665 155.833 16.6665 175C36.6665 174.167 54.9998 166.667 70.8332 154.167C79.9998 156.667 89.9998 158.333 99.9998 158.333C145.833 158.333 183.333 128.333 183.333 91.6667C183.333 55 145.833 25 99.9998 25ZM99.9998 141.667C63.3332 141.667 33.3332 119.167 33.3332 91.6667C33.3332 64.1667 63.3332 41.6667 99.9998 41.6667C136.667 41.6667 166.667 64.1667 166.667 91.6667C166.667 119.167 136.667 141.667 99.9998 141.667ZM101.667 54.1667C94.1665 54.1667 88.3332 55.8333 84.1665 58.3333C79.1665 61.6667 76.6665 66.6667 77.4998 72.5H94.1665C94.1665 70 94.9998 68.3333 96.6665 67.5C98.3332 66.6667 99.9998 65.8333 102.5 65.8333C105 65.8333 107.5 66.6667 109.167 68.3333C110.833 70 111.667 71.6667 111.667 74.1667C111.667 76.6667 110.833 78.3333 110 80C108.333 81.6667 106.667 83.3333 105 84.1667C100.833 86.6667 97.4998 89.1667 95.8332 90.8333C92.4998 93.3333 91.6665 95.8333 91.6665 100H108.333C108.333 97.5 109.167 95.8333 109.167 94.1667C110 92.5 111.667 91.6667 113.333 90C117.5 88.3333 120 85.8333 122.5 82.5C125 79.1667 125.833 75.8333 125.833 72.5C125.833 66.6667 123.333 61.6667 119.167 58.3333C115.833 55.8333 109.167 54.1667 101.667 54.1667ZM91.6665 108.333V125H108.333V108.333H91.6665Z" fill="#FE9E45"/>
</svg>
