<svg width="200" height="200" viewBox="0 0 200 200" fill="none" xmlns="http://www.w3.org/2000/svg">
<path d="M99.375 185.625C55.7813 185.625 8.75 158.281 8.75 98.2812C8.75 38.2812 55.7813 10.9375 99.375 10.9375C123.594 10.9375 145.938 18.9062 162.5 33.4375C180.469 49.375 190 71.875 190 98.2812C190 124.688 180.469 147.031 162.5 162.969C145.938 177.5 123.438 185.625 99.375 185.625Z" fill="#FE9E45"/>
<path d="M99.375 185.625C55.7813 185.625 8.75 158.281 8.75 98.2812C8.75 38.2812 55.7813 10.9375 99.375 10.9375C123.594 10.9375 145.938 18.9062 162.5 33.4375C180.469 49.375 190 71.875 190 98.2812C190 124.688 180.469 147.031 162.5 162.969C145.938 177.5 123.438 185.625 99.375 185.625Z" fill="#FE9E45"/>
<path d="M174.203 46.3594C182.531 59.7969 186.875 75.7969 186.875 93.5938C186.875 120 177.344 142.344 159.375 158.281C142.812 172.812 120.312 180.938 96.25 180.938C68.0312 180.938 38.4375 169.453 20.9688 145.094C37.7812 172.687 69.4062 185.625 99.375 185.625C123.438 185.625 145.938 177.5 162.5 162.969C180.469 147.031 190 124.688 190 98.2812C190 78.375 184.578 60.6875 174.203 46.3594Z" fill="#DD6E25"/>
<path opacity="0.66" d="M10.125 117.359C11.6875 113.281 18.5938 113.219 23.7031 115.688C33.5938 120.484 32.4219 130.984 37.375 133.078C42.3281 135.172 57.9688 122.344 79.9531 120.313C82.4219 120.078 97 118.25 98.4375 124.375C99 126.797 94.875 127.266 94.875 127.266C85.9375 130.578 76.8438 133.953 68.8438 139.188C59.7656 145.109 51.8281 153.484 41.2813 155.953C37.1719 156.906 32.5313 156.766 29.1875 154.219C25.0313 151.094 24.1094 145.359 22.5938 140.375C20.8517 134.669 18.0063 129.36 14.2188 124.75" fill="url(#paint0_linear)"/>
<path d="M9.93761 117.344C7.09386 120.797 13.1407 129.969 14.2189 134.64C16.8126 145.922 14.2189 148.703 14.0157 158.734C13.8439 169.765 17.1407 179.047 25.547 184.969C33.4532 190.578 42.1564 191.219 54.3439 187.625C66.5314 184.031 74.7657 182.297 75.3907 176.297C75.7345 173.812 74.422 171.375 72.1407 170.312C73.3595 169.734 74.3282 168.75 74.8751 167.515C77.7814 160.578 71.9845 159.109 71.9845 159.109C72.7814 158.156 73.4532 157.109 73.9845 155.984C75.7189 152.531 75.4376 147.844 70.4376 146.312C68.1407 145.609 67.5157 145.984 67.5157 145.984C69.8907 143.547 72.7345 141.594 75.8751 140.281C84.2814 136.672 94.2501 134.484 96.7345 132.375C100.344 129.25 100.563 123.234 94.1876 121.437C85.0314 118.75 68.1876 125 57.9376 131.515C47.6876 138.031 38.2814 141.547 35.1564 140.359C32.0314 139.172 30.0939 137.234 28.9064 132.547C26.7032 123.828 25.0001 120.453 21.2657 117.187C18.172 114.531 12.1251 114.687 9.93761 117.344Z" fill="#FFBB7C"/>
<path d="M60.7502 151.219C60.7502 151.219 58.4533 149.656 67.6252 142.328C73.8752 137.312 77.4846 136.406 84.9689 134.516C100.094 130.812 99.1408 126.047 99.1408 126.047C99.9533 133.062 93.0158 134.625 87.9377 136.219C87.4064 136.375 86.9064 136.578 86.3752 136.703C68.9845 141.141 62.9064 152.609 60.7502 151.219Z" fill="url(#paint1_linear)"/>
<path d="M75 168.609C76.3594 166.359 76.7344 163.625 76.0156 161.094C75.5156 159.609 74.5625 158.313 73.2656 157.422C73.4531 157.172 73.6406 156.938 73.8125 156.656C75.2031 154.484 75.4063 151.75 74.3594 149.391C73.1719 147.531 71.2344 146.297 69.0625 146.016C70.5469 146.734 71.6563 148.063 72.0938 149.656C72.3438 151.578 72.0625 153.547 71.3125 155.328C70.8197 156.524 70.0197 157.569 68.9935 158.356C67.9674 159.143 66.7514 159.646 65.4688 159.813C61.6875 160.563 62.8438 162.125 62.8438 162.125C63.1719 163.375 67.6406 162.219 71.0313 159.687C71.9844 160.187 72.7031 161.047 73.0469 162.063C73.4063 163.641 73.1875 165.313 72.4375 166.75C71.9159 167.887 71.1519 168.895 70.1991 169.705C69.2462 170.515 68.1276 171.106 66.9219 171.438C63.5625 172.359 64.4844 173.594 64.4844 173.594C64.4844 173.594 64.6406 176.25 71.5469 171.875C72.3594 173.438 73.4375 176.922 71.2813 179.172C63.9688 186.875 42.4219 189.844 42.4219 189.844C53.3594 189.844 68.3906 185.625 73.0469 181.766C73.9402 181.067 74.6641 180.176 75.1647 179.159C75.6652 178.142 75.9294 177.024 75.9375 175.891C76.1406 173.75 75.3438 171.625 73.7969 170.125C74.2344 169.656 74.6406 169.156 75 168.609Z" fill="url(#paint2_linear)"/>
<path d="M120.109 111.422C119.609 111.328 119.141 111.125 118.75 110.797C111.707 105.147 103.3 101.45 94.375 100.078C85.4532 98.5311 76.2969 99.3749 67.8125 102.515C67.3438 102.703 66.8438 102.765 66.3438 102.687C65.25 102.5 64.3594 101.687 64.0625 100.609C63.7656 99.5467 64.125 98.4217 64.9688 97.7186C81.5313 83.9686 106.094 86.2499 119.844 102.812C120.969 104.172 122 105.609 122.938 107.094C123.531 108.015 123.531 109.203 122.938 110.125C122.328 111.078 121.219 111.578 120.109 111.422Z" fill="#422B0D"/>
<path d="M126.203 48.6094C132.75 48.6094 138.703 54.1406 138.703 63.3281C138.703 72.5156 132.75 78.0312 126.203 78.0312C119.656 78.0312 113.703 72.5 113.703 63.3281C113.703 54.1562 119.656 48.6094 126.203 48.6094Z" fill="#422B0D"/>
<path d="M72.0938 34.375C65.5469 34.375 59.5938 39.9062 59.5938 49.0781C59.5938 58.25 65.5469 63.7969 72.0938 63.7969C78.6563 63.7969 84.5938 58.2656 84.5938 49.0781C84.5938 39.8906 78.6563 34.375 72.0938 34.375Z" fill="#422B0D"/>
<path d="M62.0782 16.6093C61.3751 15.4531 61.2813 14.0156 61.8282 12.7812C62.4219 11.5468 63.5938 10.7031 64.9532 10.5312C73.4688 9.2031 82.1563 11.2187 89.2188 16.1406C91.8594 17.9531 94.2032 20.1406 96.1876 22.6562C96.3126 22.8125 96.4219 22.9843 96.5313 23.1718C97.5938 24.8281 97.2344 27.0156 95.7032 28.25C94.9073 28.909 93.9005 29.2591 92.8674 29.2362C91.8343 29.2132 90.8441 28.8187 90.0782 28.125L90.7344 27.0625L89.9376 28C83.099 22.2793 74.5368 19.0217 65.6251 18.75C64.1407 18.75 62.7657 17.9687 62.0157 16.6875L62.0782 16.6093Z" fill="#422B0D"/>
<path d="M145.313 44.5626C145.883 44.244 146.371 43.7947 146.735 43.2515C147.099 42.7084 147.329 42.0868 147.406 41.4376C147.455 40.7705 147.338 40.1016 147.066 39.4908C146.793 38.8801 146.373 38.3464 145.844 37.9376C139.078 32.5469 130.484 29.9688 121.875 30.7813C118.688 31.0469 115.563 31.7969 112.594 33.0001L112.031 33.2657C110.297 34.1876 109.531 36.2657 110.25 38.0938C110.616 39.0525 111.315 39.8479 112.218 40.3354C113.121 40.8228 114.169 40.97 115.172 40.7501V39.5001L115.391 40.7188C124.141 39.0938 133.188 40.4532 141.078 44.5782C142.375 45.3126 143.953 45.3126 145.25 44.5782L145.313 44.5626Z" fill="#422B0D"/>
<defs>
<linearGradient id="paint0_linear" x1="54.6453" y1="166.266" x2="54.2547" y2="114.109" gradientUnits="userSpaceOnUse">
<stop stop-color="#BF360C"/>
<stop offset="1" stop-color="#BF360C" stop-opacity="0.2"/>
</linearGradient>
<linearGradient id="paint1_linear" x1="61.3767" y1="147.864" x2="100.736" y2="128.317" gradientUnits="userSpaceOnUse">
<stop offset="0.13" stop-color="#DA6727"/>
<stop offset="1" stop-color="#FFC400"/>
</linearGradient>
<linearGradient id="paint2_linear" x1="59.3422" y1="186.672" x2="59.6703" y2="127.344" gradientUnits="userSpaceOnUse">
<stop offset="0.13" stop-color="#DA6727"/>
<stop offset="1" stop-color="#FFC400"/>
</linearGradient>
</defs>
</svg>
