<svg width="25" height="19" viewBox="0 0 25 19" fill="none" xmlns="http://www.w3.org/2000/svg">
<path fill-rule="evenodd" clip-rule="evenodd" d="M22.9163 0.125C24.0662 0.125 25 1.0575 25 2.20875V16.7913C25 17.9412 24.0675 18.875 22.9163 18.875H2.08375C0.93375 18.875 0 17.9425 0 16.7913V2.20875C0 1.05875 0.9325 0.125 2.08375 0.125H22.9163ZM8.96 11.16L2.8225 17.225H21.9788L15.9075 11.2225L12.5 13.5813L8.96 11.16ZM23.3 6.115L17.305 10.26L23.3 16.18V6.115ZM1.70125 6.19125V15.9862L7.55875 10.1975L1.70125 6.19125ZM22.8962 1.77625H2.1225C2.00843 1.7709 1.89664 1.80936 1.81 1.88375C1.7715 1.91823 1.74178 1.96139 1.7233 2.00965C1.70483 2.05791 1.69812 2.10988 1.70375 2.16125V4.18625L12.5 11.57L23.305 4.11375V2.24875C23.3062 2.08125 23.2675 1.96 23.19 1.88375C23.1515 1.84631 23.1056 1.81738 23.0552 1.79886C23.0048 1.78034 22.9511 1.77264 22.8975 1.77625H22.8962Z" fill="white"/>
</svg>
