<svg width="120" height="120" viewBox="0 0 120 120" fill="none" xmlns="http://www.w3.org/2000/svg">
<path d="M26.2501 19.5374C25.6504 19.5298 25.068 19.3356 24.5837 18.9818C24.0994 18.6281 23.7373 18.1323 23.5476 17.5633C23.3579 16.9943 23.3502 16.3804 23.5253 15.8068C23.7005 15.2332 24.0499 14.7284 24.5251 14.3624C34.8721 7.04223 47.333 3.31452 60.0001 3.74994C69.9751 3.74994 84.3001 5.43743 95.6251 13.5749C96.2445 14.0193 96.663 14.6904 96.7894 15.4421C96.9159 16.1938 96.74 16.9649 96.3001 17.5874C95.8434 18.2034 95.163 18.6153 94.4055 18.7345C93.648 18.8537 92.874 18.6707 92.2501 18.2249C82.6332 12.1132 71.387 9.06625 60.0001 9.48743C48.6319 9.10122 37.4458 12.4176 28.1251 18.9374C27.5944 19.3599 26.9274 19.5733 26.2501 19.5374Z" fill="#FE9E45"/>
<path d="M105.863 45.975C105.399 45.9707 104.943 45.8563 104.532 45.6412C104.121 45.426 103.768 45.1162 103.5 44.7375C97.0126 35.5875 85.4251 23.4 60.0001 23.4C51.5466 23.1871 43.1667 25.0194 35.5734 28.7409C27.9802 32.4625 21.3982 37.9631 16.3876 44.775C15.9376 45.3884 15.2637 45.7994 14.5124 45.9188C13.7611 46.0382 12.993 45.8562 12.3751 45.4125C12.0509 45.1869 11.7772 44.8964 11.5712 44.5594C11.3653 44.2224 11.2316 43.8463 11.1787 43.4549C11.1259 43.0635 11.1549 42.6654 11.264 42.2858C11.3731 41.9063 11.5599 41.5535 11.8126 41.25C17.3676 33.7456 24.6445 27.6859 33.0305 23.581C41.4164 19.4761 50.6659 17.4463 60.0001 17.6625C81.0376 17.6625 96.7876 25.4625 108.15 41.4375C108.586 42.0645 108.756 42.8388 108.622 43.5909C108.489 44.3429 108.063 45.0114 107.438 45.45C106.973 45.7715 106.427 45.9537 105.863 45.975Z" fill="#FE9E45"/>
<path d="M46.0501 116.25C45.4683 116.247 44.9007 116.071 44.4198 115.743C43.9388 115.416 43.5664 114.953 43.3501 114.413C43.2001 114.059 43.1241 113.679 43.1266 113.295C43.1291 112.912 43.2101 112.532 43.3647 112.181C43.5193 111.83 43.7441 111.514 44.0254 111.253C44.3066 110.992 44.6383 110.791 45.0001 110.663C61.3876 104.363 71.2501 91.4626 71.2501 76.1251C71.3621 74.6191 71.148 73.1066 70.6222 71.6909C70.0965 70.2751 69.2715 68.9895 68.2036 67.9216C67.1358 66.8537 65.8501 66.0287 64.4344 65.503C63.0186 64.9773 61.5061 64.7631 60.0001 64.8751C53.0251 64.8751 49.6501 68.6251 48.7501 77.4376C48.3316 81.5593 46.3319 85.3584 43.1711 88.0367C40.0104 90.7149 35.9346 92.0639 31.8001 91.8001C29.5767 91.8324 27.3709 91.4013 25.3233 90.5342C23.2757 89.6671 21.4311 88.383 19.9071 86.7637C18.3831 85.1445 17.2131 83.2255 16.4715 81.1292C15.73 79.0328 15.4332 76.805 15.6001 74.5876C15.8073 62.9934 20.5921 51.9519 28.9103 43.8725C37.2285 35.7932 48.4048 31.332 60.0001 31.4626C71.8895 31.4624 83.2958 36.1674 91.7274 44.5499C100.159 52.9323 104.931 64.3109 105 76.2001C104.735 84.5716 102.97 92.8276 99.7876 100.575C99.4821 101.266 98.9211 101.812 98.222 102.099C97.523 102.385 96.7402 102.39 96.0376 102.113C95.689 101.969 95.3725 101.758 95.1061 101.491C94.8398 101.224 94.629 100.907 94.486 100.559C94.3431 100.21 94.2707 99.8361 94.2731 99.4592C94.2755 99.0823 94.3526 98.7095 94.5001 98.3626C97.3797 91.313 98.992 83.8104 99.2626 76.2001C99.213 65.8265 95.0521 55.8957 87.6922 48.585C80.3323 41.2743 70.3738 37.1802 60.0001 37.2001C54.9804 37.1007 49.9905 37.9925 45.3159 39.8243C40.6414 41.6561 36.3741 44.392 32.7584 47.8753C29.1427 51.3586 26.2496 55.521 24.2448 60.124C22.24 64.727 21.1629 69.6803 21.0751 74.7001C20.9214 76.1591 21.0785 77.6341 21.536 79.028C21.9935 80.4218 22.7411 81.703 23.7295 82.7871C24.7179 83.8712 25.9248 84.7336 27.2706 85.3176C28.6164 85.9015 30.0707 86.1938 31.5376 86.1751C32.888 86.3094 34.2517 86.1748 35.5499 85.7792C36.848 85.3835 38.055 84.7346 39.101 83.8699C40.1469 83.0052 41.0113 81.9419 41.644 80.7413C42.2768 79.5408 42.6655 78.2267 42.7876 76.8751C44.1376 65.2126 49.8751 59.2876 59.8876 59.2876C62.1566 59.1729 64.4244 59.5379 66.5428 60.3587C68.6613 61.1796 70.583 62.4378 72.1824 64.0514C73.7818 65.6649 75.023 67.5976 75.8252 69.7232C76.6273 71.8488 76.9723 74.1197 76.8376 76.3876C76.8376 94.1626 65.5876 109.088 46.8376 116.25C46.5759 116.28 46.3117 116.28 46.0501 116.25Z" fill="#FE9E45"/>
<path d="M74.1372 113.55C73.419 113.538 72.7281 113.273 72.1872 112.8C71.9197 112.535 71.7072 112.22 71.5623 111.872C71.4173 111.524 71.3427 111.152 71.3427 110.775C71.3427 110.398 71.4173 110.026 71.5623 109.678C71.7072 109.33 71.9197 109.015 72.1872 108.75C80.624 100.005 85.3767 88.3512 85.4622 76.2C85.4622 70.35 83.6622 51.2625 60.3372 51.2625C56.9385 51.143 53.55 51.7015 50.3694 52.9055C47.1888 54.1095 44.2799 55.9348 41.8122 58.275C39.6044 60.4595 37.8589 63.0662 36.6799 65.9396C35.5009 68.813 34.9125 71.8944 34.9497 75C34.9399 75.7593 34.6313 76.4842 34.0909 77.0176C33.5504 77.551 32.8216 77.8501 32.0622 77.85C31.6848 77.855 31.3102 77.785 30.9601 77.644C30.61 77.503 30.2913 77.2938 30.0227 77.0287C29.7541 76.7635 29.5408 76.4477 29.3952 76.0994C29.2496 75.7512 29.1747 75.3775 29.1747 75C29.1163 71.1583 29.8222 67.3432 31.2514 63.7767C32.6806 60.2102 34.8045 56.9634 37.4997 54.225C40.4874 51.3575 44.0147 49.1119 47.8772 47.6184C51.7396 46.1249 55.8601 45.4134 59.9997 45.525C82.7997 45.525 90.8997 62.025 90.8997 76.2C90.8507 89.726 85.6163 102.718 76.2747 112.5C76.017 112.821 75.6919 113.081 75.3226 113.262C74.9533 113.444 74.5486 113.542 74.1372 113.55Z" fill="#FE9E45"/>
<path d="M32.475 104.025C30.5203 104.02 28.5673 103.908 26.625 103.687C26.2434 103.655 25.8721 103.546 25.5332 103.368C25.1942 103.189 24.8944 102.945 24.6514 102.649C24.4085 102.353 24.2273 102.011 24.1185 101.644C24.0098 101.276 23.9757 100.891 24.0183 100.51C24.0608 100.13 24.1792 99.7613 24.3664 99.4271C24.5536 99.093 24.8058 98.7996 25.1082 98.5645C25.4106 98.3294 25.757 98.1572 26.127 98.0581C26.497 97.959 26.8831 97.935 27.2625 97.9875C36.6 99.0375 43.95 97.3875 49.1625 93.0375C51.5652 90.8888 53.5082 88.2761 54.8745 85.3566C56.2408 82.4372 57.0021 79.2714 57.1125 76.05C57.1311 75.6702 57.2265 75.2982 57.3929 74.9564C57.5593 74.6146 57.7932 74.31 58.0807 74.0611C58.3681 73.8123 58.703 73.6243 59.0651 73.5085C59.4272 73.3927 59.809 73.3515 60.1875 73.3875C60.9435 73.4451 61.6475 73.7941 62.1512 74.3607C62.6549 74.9274 62.9189 75.6675 62.8875 76.425C62.7295 80.4358 61.7571 84.3726 60.0293 87.9957C58.3016 91.6189 55.8547 94.8525 52.8375 97.5C47.0491 102.041 39.8245 104.356 32.475 104.025Z" fill="#FE9E45"/>
</svg>
