<svg width="86" height="90" viewBox="0 0 86 90" fill="none" xmlns="http://www.w3.org/2000/svg">
<path fill-rule="evenodd" clip-rule="evenodd" d="M43.0974 0C31.8049 0 21.5174 3.73 15.4299 6.7775C14.8799 7.0525 14.3674 7.3225 13.8899 7.5825C12.9449 8.0975 12.1399 8.5775 11.4999 9L18.4249 19.195L21.6849 20.4925C34.4249 26.92 51.5099 26.92 64.2524 20.4925L67.9524 18.5725L74.4999 9C73.1438 8.11514 71.7335 7.31608 70.2774 6.6075C64.2199 3.5925 54.1774 0 43.0999 0H43.0974ZM26.9924 11.54C24.5402 11.0812 22.1183 10.4734 19.74 9.72C25.4424 7.1875 33.9399 4.5 43.0974 4.5C49.4399 4.5 55.4374 5.79 60.3974 7.425C54.5849 8.2425 48.3824 9.63 42.4724 11.3375C37.8224 12.6825 32.3874 12.5375 26.9924 11.54ZM66.8924 24.2L66.2774 24.51C52.2624 31.58 33.6724 31.58 19.6574 24.51L19.0749 24.215C-1.98005 47.3175 -18.0551 89.9925 43.0974 89.9925C104.25 89.9925 87.7824 46.52 66.8924 24.2ZM40.4999 45C39.1739 45 37.9021 45.5268 36.9644 46.4645C36.0267 47.4021 35.4999 48.6739 35.4999 50C35.4999 51.3261 36.0267 52.5979 36.9644 53.5355C37.9021 54.4732 39.1739 55 40.4999 55V45ZM45.4999 40V37.5H40.4999V40C37.8478 40 35.3042 41.0536 33.4289 42.9289C31.5535 44.8043 30.4999 47.3478 30.4999 50C30.4999 52.6522 31.5535 55.1957 33.4289 57.0711C35.3042 58.9464 37.8478 60 40.4999 60V70C38.3249 70 36.4725 68.6125 35.7824 66.6675C35.6801 66.3493 35.5149 66.0548 35.2968 65.8016C35.0786 65.5483 34.8119 65.3413 34.5124 65.193C34.2128 65.0446 33.8866 64.9578 33.5529 64.9377C33.2192 64.9176 32.8849 64.9646 32.5697 65.0759C32.2546 65.1873 31.9649 65.3607 31.7179 65.586C31.4709 65.8112 31.2716 66.0837 31.1318 66.3873C30.992 66.691 30.9145 67.0196 30.9038 67.3537C30.8932 67.6878 30.9497 68.0206 31.07 68.3325C31.7596 70.2824 33.0367 71.9707 34.7255 73.1647C36.4142 74.3588 38.4317 75 40.4999 75V77.5H45.4999V75C48.1521 75 50.6956 73.9464 52.571 72.0711C54.4464 70.1957 55.4999 67.6522 55.4999 65C55.4999 62.3478 54.4464 59.8043 52.571 57.9289C50.6956 56.0536 48.1521 55 45.4999 55V45C47.6749 45 49.5274 46.3875 50.2174 48.3325C50.3198 48.6507 50.485 48.9452 50.7031 49.1984C50.9213 49.4517 51.188 49.6587 51.4875 49.807C51.7871 49.9554 52.1133 50.0422 52.447 50.0623C52.7807 50.0824 53.115 50.0354 53.4302 49.9241C53.7453 49.8127 54.035 49.6393 54.282 49.414C54.5289 49.1888 54.7282 48.9163 54.8681 48.6127C55.0079 48.309 55.0854 47.9804 55.0961 47.6463C55.1067 47.3122 55.0502 46.9794 54.9299 46.6675C54.2403 44.7176 52.9632 43.0293 51.2744 41.8353C49.5856 40.6412 47.5682 40 45.4999 40ZM45.4999 60V70C46.826 70 48.0978 69.4732 49.0355 68.5355C49.9732 67.5979 50.4999 66.3261 50.4999 65C50.4999 63.6739 49.9732 62.4021 49.0355 61.4645C48.0978 60.5268 46.826 60 45.4999 60Z" fill="#FE9E45"/>
</svg>
